<svg width="49.6" height="27.012" viewBox="0 0 49.6 27.012" xmlns="http://www.w3.org/2000/svg"><g id="svgGroup" stroke-linecap="round" fill-rule="evenodd" font-size="9pt" stroke="#ffffff" stroke-width="0.25mm" fill="#ffffff" style="stroke:#ffffff;stroke-width:0.25mm;fill:#ffffff"><path d="M 31.714 27.012 L 30.967 27.012 A 4.889 4.889 0 0 1 29.354 26.748 A 4.659 4.659 0 0 1 29.253 26.711 A 4.392 4.392 0 0 1 28.039 26.033 A 4.126 4.126 0 0 1 27.847 25.869 A 3.894 3.894 0 0 1 26.902 24.565 A 3.922 3.922 0 0 1 26.566 23.176 A 4.62 4.62 0 0 1 26.558 22.896 L 26.558 22.837 A 4.176 4.176 0 0 1 26.69 21.771 A 3.668 3.668 0 0 1 26.88 21.226 Q 27.202 20.493 27.759 19.951 A 3.164 3.164 0 0 1 26.638 18.801 A 3.157 3.157 0 0 1 26.221 17.197 A 3.275 3.275 0 0 1 26.558 15.725 Q 26.895 15.044 27.48 14.619 A 4.514 4.514 0 0 1 26.367 13.14 A 4.301 4.301 0 0 1 25.961 11.441 A 5.018 5.018 0 0 1 25.957 11.25 L 25.957 10.122 A 4.316 4.316 0 0 1 26.301 8.408 Q 26.646 7.603 27.246 7.002 A 4.427 4.427 0 0 1 28.652 6.057 A 4.316 4.316 0 0 1 30.366 5.713 L 31.113 5.713 A 4.281 4.281 0 0 1 33.142 6.204 A 4.503 4.503 0 0 1 34.688 7.529 L 35.669 6.006 L 36.27 6.006 L 36.27 11.25 A 4.316 4.316 0 0 1 35.925 12.964 Q 35.581 13.77 34.98 14.37 A 4.427 4.427 0 0 1 33.574 15.315 A 4.316 4.316 0 0 1 31.86 15.659 L 29.253 15.659 A 1.419 1.419 0 0 0 28.667 15.784 A 1.699 1.699 0 0 0 28.176 16.113 A 1.425 1.425 0 0 0 27.847 16.604 A 1.549 1.549 0 0 0 27.729 17.197 A 1.495 1.495 0 0 0 27.847 17.783 Q 27.964 18.062 28.176 18.274 Q 28.389 18.486 28.667 18.604 A 1.495 1.495 0 0 0 29.253 18.721 L 31.714 18.721 A 4.889 4.889 0 0 1 33.327 18.985 A 4.659 4.659 0 0 1 33.428 19.021 A 4.392 4.392 0 0 1 34.641 19.7 A 4.126 4.126 0 0 1 34.834 19.863 A 3.894 3.894 0 0 1 35.779 21.167 A 3.922 3.922 0 0 1 36.115 22.557 A 4.62 4.62 0 0 1 36.123 22.837 L 36.123 22.896 A 4.179 4.179 0 0 1 35.964 24.062 A 3.752 3.752 0 0 1 35.779 24.565 A 3.894 3.894 0 0 1 34.834 25.869 A 4.305 4.305 0 0 1 33.528 26.673 A 4.903 4.903 0 0 1 33.428 26.711 A 4.852 4.852 0 0 1 31.771 27.011 A 5.466 5.466 0 0 1 31.714 27.012 Z M 9.932 21.006 L 0 21.006 L 0 0 L 1.89 0 L 1.89 19.204 L 9.932 19.204 L 9.932 21.006 Z M 17.944 21.299 L 16.743 21.299 A 4.316 4.316 0 0 1 15.029 20.955 Q 14.224 20.61 13.623 20.01 A 4.427 4.427 0 0 1 12.678 18.604 A 4.316 4.316 0 0 1 12.334 16.89 L 12.334 10.122 A 4.316 4.316 0 0 1 12.678 8.408 Q 13.022 7.603 13.623 7.002 A 4.427 4.427 0 0 1 15.029 6.057 A 4.316 4.316 0 0 1 16.743 5.713 L 17.944 5.713 A 4.316 4.316 0 0 1 19.658 6.057 Q 20.464 6.401 21.064 7.002 A 4.427 4.427 0 0 1 22.009 8.408 A 4.316 4.316 0 0 1 22.354 10.122 L 22.354 16.89 A 4.316 4.316 0 0 1 22.009 18.604 Q 21.665 19.409 21.064 20.01 A 4.427 4.427 0 0 1 19.658 20.955 A 4.316 4.316 0 0 1 17.944 21.299 Z M 45.19 21.299 L 43.989 21.299 A 4.316 4.316 0 0 1 42.275 20.955 Q 41.47 20.61 40.869 20.01 A 4.427 4.427 0 0 1 39.924 18.604 A 4.316 4.316 0 0 1 39.58 16.89 L 39.58 10.122 A 4.316 4.316 0 0 1 39.924 8.408 Q 40.269 7.603 40.869 7.002 A 4.427 4.427 0 0 1 42.275 6.057 A 4.316 4.316 0 0 1 43.989 5.713 L 45.19 5.713 A 4.316 4.316 0 0 1 46.904 6.057 Q 47.71 6.401 48.311 7.002 A 4.427 4.427 0 0 1 49.255 8.408 A 4.316 4.316 0 0 1 49.6 10.122 L 49.6 16.89 A 4.316 4.316 0 0 1 49.255 18.604 Q 48.911 19.409 48.311 20.01 A 4.427 4.427 0 0 1 46.904 20.955 A 4.316 4.316 0 0 1 45.19 21.299 Z M 20.552 16.992 L 20.552 10.02 A 2.546 2.546 0 0 0 20.347 9.001 A 2.627 2.627 0 0 0 19.79 8.174 Q 19.438 7.822 18.962 7.617 A 2.546 2.546 0 0 0 17.944 7.412 L 16.743 7.412 A 2.546 2.546 0 0 0 15.725 7.617 A 2.627 2.627 0 0 0 14.897 8.174 Q 14.546 8.525 14.341 9.001 A 2.546 2.546 0 0 0 14.136 10.02 L 14.136 16.992 A 2.546 2.546 0 0 0 14.341 18.01 A 2.627 2.627 0 0 0 14.897 18.838 Q 15.249 19.189 15.725 19.395 A 2.546 2.546 0 0 0 16.743 19.6 L 17.944 19.6 A 2.546 2.546 0 0 0 18.962 19.395 A 2.627 2.627 0 0 0 19.79 18.838 Q 20.142 18.486 20.347 18.01 A 2.546 2.546 0 0 0 20.552 16.992 Z M 47.798 16.992 L 47.798 10.02 A 2.546 2.546 0 0 0 47.593 9.001 A 2.627 2.627 0 0 0 47.036 8.174 Q 46.685 7.822 46.208 7.617 A 2.546 2.546 0 0 0 45.19 7.412 L 43.989 7.412 A 2.546 2.546 0 0 0 42.971 7.617 A 2.627 2.627 0 0 0 42.144 8.174 Q 41.792 8.525 41.587 9.001 A 2.546 2.546 0 0 0 41.382 10.02 L 41.382 16.992 A 2.546 2.546 0 0 0 41.587 18.01 A 2.627 2.627 0 0 0 42.144 18.838 Q 42.495 19.189 42.971 19.395 A 2.546 2.546 0 0 0 43.989 19.6 L 45.19 19.6 A 2.546 2.546 0 0 0 46.208 19.395 A 2.627 2.627 0 0 0 47.036 18.838 Q 47.388 18.486 47.593 18.01 A 2.546 2.546 0 0 0 47.798 16.992 Z M 34.482 11.353 L 34.482 10.02 A 2.546 2.546 0 0 0 34.277 9.001 Q 34.072 8.525 33.713 8.174 A 2.717 2.717 0 0 0 32.878 7.617 A 2.546 2.546 0 0 0 31.86 7.412 L 30.366 7.412 A 2.546 2.546 0 0 0 29.348 7.617 A 2.627 2.627 0 0 0 28.521 8.174 Q 28.169 8.525 27.964 9.001 A 2.546 2.546 0 0 0 27.759 10.02 L 27.759 11.353 A 2.546 2.546 0 0 0 27.964 12.371 A 2.627 2.627 0 0 0 28.521 13.198 Q 28.872 13.55 29.348 13.755 A 2.546 2.546 0 0 0 30.366 13.96 L 31.86 13.96 A 2.546 2.546 0 0 0 32.878 13.755 A 2.717 2.717 0 0 0 33.713 13.198 Q 34.072 12.847 34.277 12.371 A 2.546 2.546 0 0 0 34.482 11.353 Z M 34.409 22.983 L 34.409 22.749 A 2.46 2.46 0 0 0 34.346 22.182 A 2.041 2.041 0 0 0 34.204 21.775 Q 33.999 21.343 33.647 21.05 A 2.484 2.484 0 0 0 33.008 20.667 A 2.933 2.933 0 0 0 32.82 20.596 A 3.106 3.106 0 0 0 31.94 20.437 A 3.563 3.563 0 0 0 31.802 20.435 L 30.879 20.435 A 3.236 3.236 0 0 0 30.08 20.531 A 2.937 2.937 0 0 0 29.861 20.596 A 2.692 2.692 0 0 0 29.29 20.864 A 2.362 2.362 0 0 0 29.033 21.05 Q 28.682 21.343 28.477 21.775 A 2.125 2.125 0 0 0 28.288 22.453 A 2.64 2.64 0 0 0 28.271 22.749 L 28.271 22.983 A 2.448 2.448 0 0 0 28.329 23.524 A 1.981 1.981 0 0 0 28.477 23.95 Q 28.682 24.375 29.033 24.675 A 2.434 2.434 0 0 0 29.715 25.083 A 2.846 2.846 0 0 0 29.861 25.137 A 3.106 3.106 0 0 0 30.74 25.295 A 3.563 3.563 0 0 0 30.879 25.298 L 31.802 25.298 A 3.236 3.236 0 0 0 32.601 25.201 A 2.937 2.937 0 0 0 32.82 25.137 A 2.583 2.583 0 0 0 33.428 24.841 A 2.314 2.314 0 0 0 33.647 24.675 A 2.2 2.2 0 0 0 34.204 23.95 A 2.055 2.055 0 0 0 34.389 23.311 A 2.601 2.601 0 0 0 34.409 22.983 Z"/></g></svg>